<?xml version="1.0" encoding="utf-8"?>
<!-- Generator: Adobe Illustrator 23.0.5, SVG Export Plug-In . SVG Version: 6.00 Build 0)  -->
<svg version="1.1" id="Capa_1" xmlns="http://www.w3.org/2000/svg" xmlns:xlink="http://www.w3.org/1999/xlink" x="0px" y="0px"
	 viewBox="0 0 800 600" style="enable-background:new 0 0 800 600;" xml:space="preserve">
<path d="M185.94,460.01c-35.63,0-59.23-8.95-68.07-26.35c-12.56-24.7,6.17-63.39,52.74-108.94c46.43-45.42,115.02-92.3,193.13-132
	s156.4-67.5,220.45-78.25c64.24-10.78,106.53-3.12,119.09,21.58c12.56,24.7-6.17,63.39-52.74,108.94
	c-46.43,45.42-115.02,92.3-193.13,132c-78.11,39.71-156.4,67.5-220.45,78.25C217.97,458.43,200.89,460.01,185.94,460.01z
	 M635.09,110.73c-64.67,0-165.83,29.46-270.91,82.88c-160.91,81.8-271,189.28-245.43,239.6c12.34,24.28,54.26,31.76,118.03,21.05
	c63.96-10.74,142.15-38.49,220.17-78.16c160.91-81.8,271-189.28,245.43-239.6C693.51,119.05,669.45,110.73,635.09,110.73z"/>
</svg>
