
<svg version="1.1" id="Capa_1" xmlns="http://www.w3.org/2000/svg" xmlns:xlink="http://www.w3.org/1999/xlink" x="0px" y="0px"
	 viewBox="0 0 792 612" style="enable-background:new 0 0 792 612;" xml:space="preserve">
<style type="text/css">
	.st0{fill:#31398B;}
	.st1{fill:#C23136;}
</style>
<path d="M483.08,310.06c0,72.9-7.36,141.45-20.72,193c-13.41,51.72-31.3,80.21-50.4,80.21c-19.09,0-36.99-28.49-50.4-80.21
	c-13.36-51.56-20.72-120.1-20.72-193c0-72.9,7.36-141.45,20.72-193c13.41-51.72,31.3-80.21,50.4-80.21
	c19.09,0,36.99,28.49,50.4,80.21C475.72,168.62,483.08,237.16,483.08,310.06z M341.66,310.06c0,150.2,31.54,272.39,70.3,272.39
	c38.76,0,70.3-122.2,70.3-272.39s-31.54-272.39-70.3-272.39C373.2,37.67,341.66,159.86,341.66,310.06z"/>
<path d="M462.25,360.35c-51.55,51.55-105.22,94.81-151.13,121.82c-46.05,27.1-78.85,34.58-92.35,21.08
	c-13.5-13.5-6.01-46.3,21.08-92.35c27.01-45.91,70.27-99.58,121.82-151.13c51.55-51.55,105.22-94.81,151.13-121.82
	c46.05-27.09,78.85-34.58,92.35-21.08s6.01,46.3-21.08,92.35C557.06,255.13,513.8,308.8,462.25,360.35z M362.25,260.35
	c-106.21,106.21-170.31,214.91-142.9,242.32c27.41,27.41,136.11-36.7,242.32-142.9s170.31-214.91,142.9-242.32
	C577.16,90.04,468.46,154.15,362.25,260.35z"/>
<path d="M411.96,381.18c-72.9,0-141.45-7.36-193-20.72c-51.72-13.41-80.21-31.3-80.21-50.4c0-19.09,28.49-36.99,80.21-50.4
	c51.56-13.36,120.1-20.72,193-20.72c72.9,0,141.45,7.36,193,20.72c51.72,13.41,80.21,31.3,80.21,50.4
	c0,19.09-28.49,36.99-80.21,50.4C553.41,373.82,484.86,381.18,411.96,381.18z M411.96,239.76c-150.2,0-272.39,31.54-272.39,70.3
	c0,38.76,122.2,70.3,272.39,70.3s272.39-31.54,272.39-70.3C684.35,271.3,562.16,239.76,411.96,239.76z"/>
<path d="M361.67,360.35c-51.55-51.55-94.81-105.22-121.82-151.13c-27.1-46.05-34.58-78.85-21.08-92.35
	c13.5-13.5,46.3-6.01,92.35,21.08c45.91,27.01,99.58,70.27,151.13,121.82c51.55,51.55,94.81,105.22,121.82,151.13
	c27.09,46.05,34.58,78.85,21.08,92.35s-46.3,6.01-92.35-21.08C466.89,455.17,413.22,411.9,361.67,360.35z M461.67,260.35
	C355.47,154.15,246.76,90.04,219.35,117.45c-27.41,27.41,36.7,136.11,142.9,242.32s214.91,170.31,242.32,142.9
	C631.98,475.26,567.88,366.56,461.67,260.35z"/>
<g>
	<circle class="st0" cx="417.46" cy="319.35" r="16.93"/>
	<circle class="st1" cx="400.53" cy="319.35" r="16.93"/>
	<circle class="st0" cx="405.46" cy="298.78" r="16.93"/>
	<circle class="st1" cx="425.39" cy="304.35" r="16.93"/>
</g>
</svg>
